<svg xmlns="http://www.w3.org/2000/svg" xmlns:xlink="http://www.w3.org/1999/xlink" width="1024" height="1024" viewBox="149 148 726 726"><metadata><rdf:RDF xmlns:rdf="http://www.w3.org/1999/02/22-rdf-syntax-ns#" xmlns:dc="http://purl.org/dc/elements/1.1/"><rdf:Description><dc:creator>RealFaviconGenerator</dc:creator><dc:source>https://realfavicongenerator.net</dc:source></rdf:Description></rdf:RDF></metadata><path fill="#549BE9" d="M188.426 533.716C187.666 526.737 187.898 516.528 188.082 509.446C190.439 419.186 225.101 335.183 291.278 272.989C352.722 214.929 434.652 183.555 519.161 185.724C540.14 186.414 557.888 188.049 578.571 192.386C643.668 206.034 703.454 241.649 748.728 290.074C791.88 336.725 820.663 394.831 831.629 457.425C836.218 484.741 836.873 506.369 835.981 533.596C834.996 546.272 833.659 556.831 831.858 569.421C825.991 599.533 818.155 625.669 804.993 653.389C802.473 658.584 794.762 674.579 791.298 678.972C775.43 702.657 762.857 718.839 743.355 739.609C737.368 746.043 730.233 753.352 723.478 758.844C653.956 817.677 576.731 845.428 485.19 837.85C417.038 832.202 352.543 804.649 301.346 759.31C294.192 753.215 287.17 746.966 280.285 740.568C263.661 724.324 245.508 698.304 233.282 678.462C230.513 674.902 221.035 657.145 219.448 652.97C204.873 622.084 200.617 601.358 193.329 568.793C191.314 560.588 188.548 541.973 188.426 533.716Z"></path><defs><linearGradient id="gradient_0" gradientUnits="userSpaceOnUse" x1="529.85468" y1="776.76349" x2="462.0983" y2="408.07898"><stop offset="0" stop-color="#83C2F0"></stop><stop offset="1" stop-color="#C3EEF9"></stop></linearGradient></defs><path fill="url(#gradient_0)" d="M527.024 343.938C528.143 349.828 527.475 366.705 527.631 373.333L713.317 560.308L775.794 623.45C783.877 631.675 797.933 645.001 804.993 653.389C802.473 658.584 794.762 674.579 791.298 678.972C775.43 702.657 762.857 718.839 743.355 739.609C737.368 746.043 730.233 753.352 723.478 758.844C653.956 817.677 576.731 845.428 485.19 837.85C417.038 832.202 352.543 804.649 301.346 759.31C294.192 753.215 287.17 746.966 280.285 740.568C263.661 724.324 245.508 698.304 233.282 678.462C230.513 674.902 221.035 657.145 219.448 652.97C224.75 648.899 234.256 638.325 239.397 633.285C252.963 619.985 267.509 603.581 281.496 590.869C284.48 586.112 298.819 572.769 303.428 568.254L330.193 541.535C370.663 501.384 410.817 460.914 450.649 420.13C459.924 410.623 469.25 401.167 478.627 391.762C484.033 386.43 492.955 378.338 497.643 372.717C497.704 372.954 497.784 374.225 497.708 374.309C491.736 380.959 485.053 387.125 478.914 393.665C483.906 390.294 488.704 387.986 493.872 384.995C497.238 383.046 499.527 378.356 503.212 378.19L504.664 379.749C507.092 380.082 516.019 379.07 518.835 378.833C522.481 374.997 525.507 376.999 525.434 372.525C525.281 363.189 524.744 353.105 527.024 343.938Z"></path><defs><linearGradient id="gradient_1" gradientUnits="userSpaceOnUse" x1="513.1698" y1="837.7193" x2="509.78391" y2="547.01996"><stop offset="0" stop-color="#75BBEB"></stop><stop offset="1" stop-color="#B5E9F9"></stop></linearGradient></defs><path fill="url(#gradient_1)" d="M387.124 672.147C394.338 665.858 402.571 656.989 409.299 650.036C419.924 638.955 430.643 627.963 441.453 617.062L483.309 574.954C492.759 565.477 503.099 555.512 511.786 545.443C530.532 565.238 548.835 583.229 568.055 602.446L622.062 656.836L663.618 698.779C669.813 705.075 678.116 714.217 684.34 719.915C693.716 729.951 703.337 739.756 713.193 749.321C715.443 751.47 721.252 757.219 723.478 758.844C653.956 817.677 576.731 845.428 485.19 837.85C417.038 832.202 352.543 804.649 301.346 759.31C329.194 730.32 358.847 700.794 387.124 672.147Z"></path><defs><linearGradient id="gradient_2" gradientUnits="userSpaceOnUse" x1="604.90594" y1="703.427" x2="556.81512" y2="371.06848"><stop offset="0" stop-color="#242E48"></stop><stop offset="1" stop-color="#3D5779"></stop></linearGradient></defs><path fill="url(#gradient_2)" d="M527.024 343.938C528.143 349.828 527.475 366.705 527.631 373.333L713.317 560.308L775.794 623.45C783.877 631.675 797.933 645.001 804.993 653.389C802.473 658.584 794.762 674.579 791.298 678.972C777.973 666.411 763.226 650.618 750.205 637.397L673.47 559.866L575.364 461.687C553.933 440.543 532.729 419.171 511.755 397.574L323.668 586.705L288.366 622.306C283.904 626.867 271.827 640.172 267.512 642.873C265.193 646.242 260.176 650.84 257.222 653.868C249.677 661.601 239.924 670.043 233.282 678.462C230.513 674.902 221.035 657.145 219.448 652.97C224.75 648.899 234.256 638.325 239.397 633.285C252.963 619.985 267.509 603.581 281.496 590.869C284.48 586.112 298.819 572.769 303.428 568.254L330.193 541.535C370.663 501.384 410.817 460.914 450.649 420.13C459.924 410.623 469.25 401.167 478.627 391.762C484.033 386.43 492.955 378.338 497.643 372.717C497.704 372.954 497.784 374.225 497.708 374.309C491.736 380.959 485.053 387.125 478.914 393.665C483.906 390.294 488.704 387.986 493.872 384.995C497.238 383.046 499.527 378.356 503.212 378.19L504.664 379.749C507.092 380.082 516.019 379.07 518.835 378.833C522.481 374.997 525.507 376.999 525.434 372.525C525.281 363.189 524.744 353.105 527.024 343.938Z"></path><path fill="#0B101E" d="M415.088 458.405L416.499 459.197L417.842 458.71C416.368 460.56 411.117 464.746 410.746 465.456C404.952 476.555 398.668 487.62 392.345 498.451C390.049 502.383 386.236 505.235 384.028 509.227C379.755 517.103 376.752 530.569 370.981 537.103C365.834 542.933 358.677 549.668 353.033 555.302L301.839 606.652C296.039 612.447 269.395 637.92 267.512 642.873C265.193 646.242 260.176 650.84 257.222 653.868C249.677 661.601 239.924 670.043 233.282 678.462C230.513 674.902 221.035 657.145 219.448 652.97C224.75 648.899 234.256 638.325 239.397 633.285C252.963 619.985 267.509 603.581 281.496 590.869C285.963 589.116 301.585 571.978 306.169 567.412C319.297 554.574 332.276 541.584 345.104 528.446L415.088 458.405Z"></path><path fill="#080C14" d="M426.961 446.582C424.185 451.369 420.96 454.427 417.842 458.71L416.499 459.197L415.088 458.405C418.943 454.362 422.902 450.42 426.961 446.582Z"></path><defs><linearGradient id="gradient_3" gradientUnits="userSpaceOnUse" x1="573.55432" y1="722.61682" x2="561.42981" y2="506.66858"><stop offset="0" stop-color="#25304B"></stop><stop offset="1" stop-color="#415E7D"></stop></linearGradient></defs><path fill="url(#gradient_3)" d="M511.515 507.869C531.065 526.061 551.211 547.61 570.316 566.508C614.808 610.518 658.553 655.729 703.36 699.4C698.423 701.462 686.971 709.952 683.727 714.737C682.858 716.02 684.252 718.432 684.34 719.915C678.116 714.217 669.813 705.075 663.618 698.779L622.062 656.836L568.055 602.446C548.835 583.229 530.532 565.238 511.786 545.443C503.099 555.512 492.759 565.477 483.309 574.954L441.453 617.062C430.643 627.963 419.924 638.955 409.299 650.036C402.571 656.989 394.338 665.858 387.124 672.147C387.209 671.613 387.294 671.08 387.378 670.547C397.389 659.875 415.427 641.726 424.726 631.885C434.043 622.025 440.464 617.009 446.926 608.164C447.296 592.346 444.188 595.189 436.969 585.662L436.59 585.151C431.946 589.013 425.332 596.861 420.746 599.971C428.197 590.989 439.324 580.542 447.755 572.121L483.405 536.42C492.702 527.157 502.672 517.5 511.515 507.869Z"></path><path fill="#0B101E" d="M436.59 585.151L436.969 585.662C444.188 595.189 447.296 592.346 446.926 608.164C440.464 617.009 434.043 622.025 424.726 631.885C415.427 641.726 397.389 659.875 387.378 670.547C387.294 671.08 387.209 671.613 387.124 672.147C358.847 700.794 329.194 730.32 301.346 759.31C294.192 753.215 287.17 746.966 280.285 740.568L420.746 599.971C425.332 596.861 431.946 589.013 436.59 585.151Z"></path><path fill="#1B3B6C" d="M703.36 699.4C707.428 703.527 711.564 707.762 715.809 711.696C725.393 720.579 734.034 730.501 743.355 739.609C737.368 746.043 730.233 753.352 723.478 758.844C721.252 757.219 715.443 751.47 713.193 749.321C703.337 739.756 693.716 729.951 684.34 719.915C684.252 718.432 682.858 716.02 683.727 714.737C686.971 709.952 698.423 701.462 703.36 699.4Z"></path><path fill="#6BCBFE" d="M193.329 568.793L372.011 389.309L451.407 309.528C466.796 293.965 481.797 279.057 496.742 263.056C498.461 290.115 496.96 318.631 497.375 345.82C497.51 354.64 497.169 363.939 497.643 372.717C492.955 378.338 484.033 386.43 478.627 391.762C469.25 401.167 459.924 410.623 450.649 420.13C410.817 460.914 370.663 501.384 330.193 541.535L303.428 568.254C298.819 572.769 284.48 586.112 281.496 590.869C267.509 603.581 252.963 619.985 239.397 633.285C234.256 638.325 224.75 648.899 219.448 652.97C204.873 622.084 200.617 601.358 193.329 568.793Z"></path><defs><linearGradient id="gradient_4" gradientUnits="userSpaceOnUse" x1="785.49725" y1="422.35574" x2="564.42664" y2="489.96823"><stop offset="0" stop-color="#7DBBEC"></stop><stop offset="1" stop-color="#B2E0F4"></stop></linearGradient></defs><path fill="url(#gradient_4)" d="M527.024 343.938C526.937 324.631 527.618 305.667 527.416 286.397C527.342 279.309 527.645 270.08 527.028 263.223C536.288 272.04 545.415 281.86 554.389 291.042L604.652 342.2L747.705 485.231L806.399 543.989L824.077 561.471C825.481 562.864 830.9 568.086 831.858 569.421C825.991 599.533 818.155 625.669 804.993 653.389C797.933 645.001 783.877 631.675 775.794 623.45L713.317 560.308L527.631 373.333C527.475 366.705 528.143 349.828 527.024 343.938Z"></path><path fill="#0B101E" d="M511.528 209.29C519.131 215.554 534.871 232.33 542.258 239.778L601.249 299.054L800.041 498.838C802.361 501.157 834.792 534.207 835.185 534.37L835.981 533.596C834.996 546.272 833.659 556.831 831.858 569.421C830.9 568.086 825.481 562.864 824.077 561.471L806.399 543.989L747.705 485.231L604.652 342.2L554.389 291.042C545.415 281.86 536.288 272.04 527.028 263.223C527.645 270.08 527.342 279.309 527.416 286.397C527.618 305.667 526.937 324.631 527.024 343.938C524.744 353.105 525.281 363.189 525.434 372.525C525.507 376.999 522.481 374.997 518.835 378.833C516.019 379.07 507.092 380.082 504.664 379.749L503.212 378.19C499.527 378.356 497.238 383.046 493.872 384.995C488.704 387.986 483.906 390.294 478.914 393.665C485.053 387.125 491.736 380.959 497.708 374.309C497.784 374.225 497.704 372.954 497.643 372.717C497.169 363.939 497.51 354.64 497.375 345.82C496.96 318.631 498.461 290.115 496.742 263.056C481.797 279.057 466.796 293.965 451.407 309.528L372.011 389.309L193.329 568.793C191.314 560.588 188.548 541.973 188.426 533.716C199.032 524.752 211.328 511.144 221.477 501.066C245.904 477.021 270.099 452.74 294.058 428.228L511.528 209.29Z"></path></svg>